<svg width="22" height="22" viewBox="0 0 22 22" fill="none" xmlns="http://www.w3.org/2000/svg">
<path d="M11 15C13.2091 15 15 13.2091 15 11C15 8.79086 13.2091 7 11 7C8.79086 7 7 8.79086 7 11C7 13.2091 8.79086 15 11 15Z" fill="#5AB4C5"/>
<path d="M11 19C15.4183 19 19 15.4183 19 11C19 6.58172 15.4183 3 11 3C6.58172 3 3 6.58172 3 11C3 15.4183 6.58172 19 11 19Z" stroke="#5AB4C5" stroke-width="2"/>
<path d="M11 22V19" stroke="#5AB4C5" stroke-width="2"/>
<path d="M11 3V0" stroke="#5AB4C5" stroke-width="2"/>
<path d="M0 11H3" stroke="#5AB4C5" stroke-width="2"/>
<path d="M19 11H22" stroke="#5AB4C5" stroke-width="2"/>
</svg>
