<svg width="24" height="24" viewBox="0 0 24 24" fill="none" xmlns="http://www.w3.org/2000/svg">
<g clip-path="url(#clip0_3_1985)">
<path d="M11.9999 15C13.6567 15 14.9999 13.6569 14.9999 12C14.9999 10.3431 13.6567 9 11.9999 9C10.343 9 8.99985 10.3431 8.99985 12C8.99985 13.6569 10.343 15 11.9999 15Z" stroke="#FFFFFF" stroke-opacity="1" stroke-width="2" stroke-linecap="round" stroke-linejoin="round"/>
<path d="M6.28901 6.39966C7.30688 5.35831 8.5899 4.61477 9.99946 4.24927V1.99927H13.9991V4.24927C15.4087 4.61465 16.6917 5.35821 17.7095 6.39966L19.6595 5.26931L21.6599 8.73967L19.7099 9.87009C20.0963 11.2671 20.0963 12.7427 19.7099 14.1397L21.6599 15.2701L19.6595 18.7393L17.7095 17.6101C16.6882 18.6447 15.4061 19.3839 13.9991 19.7497V21.9997H9.99829V19.7497C8.59128 19.3838 7.30924 18.6446 6.28784 17.6101L4.33784 18.7393L2.33877 15.2701L4.28862 14.1397C3.901 12.7429 3.901 11.2669 4.28862 9.87009L2.33877 8.73967L4.33784 5.26931L6.28901 6.39966Z" stroke="#FFFFFF" stroke-opacity="1" stroke-width="2" stroke-linecap="round" stroke-linejoin="round"/>
</g>
<defs>
<clipPath id="clip0_3_1985">
<rect width="24" height="24" fill="none"/>
</clipPath>
</defs>
</svg>
